<svg width="25" height="25" viewBox="0 0 25 25" fill="none" xmlns="http://www.w3.org/2000/svg">
<path d="M23.3281 25C20.6948 25 17.9948 24.3406 15.2281 23.0219C12.4615 21.7031 9.88646 19.8516 7.50313 17.4672C5.13854 15.0839 3.29688 12.5135 1.97812 9.75625C0.659375 6.99896 0 4.30417 0 1.67188C0 1.20313 0.15625 0.807292 0.46875 0.484375C0.78125 0.161458 1.17188 0 1.64063 0H5.50469C5.92969 0 6.30052 0.133854 6.61719 0.401562C6.93385 0.669271 7.14792 1.0125 7.25938 1.43125L8.03438 5.15625C8.10729 5.59375 8.09427 5.97552 7.99531 6.30156C7.89635 6.6276 7.72292 6.89479 7.475 7.10312L4.04688 10.3C4.68854 11.4635 5.3974 12.5448 6.17344 13.5437C6.94948 14.5427 7.77761 15.4891 8.65781 16.3828C9.56406 17.2891 10.5401 18.1328 11.5859 18.9141C12.6318 19.6943 13.7797 20.4307 15.0297 21.1234L18.3719 17.7219C18.626 17.4479 18.912 17.2672 19.2297 17.1797C19.5464 17.0932 19.8974 17.076 20.2828 17.1281L23.5688 17.8C23.9938 17.9042 24.3385 18.1182 24.6031 18.4422C24.8677 18.7661 25 19.137 25 19.5547V23.3594C25 23.8281 24.8385 24.2188 24.5156 24.5312C24.1927 24.8438 23.7969 25 23.3281 25Z" fill="black"/>
</svg>
