<svg width="39" height="38" viewBox="0 0 39 38" fill="none" xmlns="http://www.w3.org/2000/svg">
<path d="M32.6626 5.45037C30.0582 2.84711 26.7403 1.07461 23.1285 0.356984C19.5167 -0.360639 15.7733 0.00885464 12.3715 1.41874C8.96969 2.82863 6.06236 5.21558 4.01714 8.27777C1.97192 11.34 0.880658 14.9399 0.881348 18.6222C0.881347 23.5611 2.84266 28.2978 6.33408 31.791C9.82551 35.2842 14.5612 37.2479 19.5001 37.2504C21.944 37.2504 24.3644 36.7727 26.6251 35.8441C28.878 34.8926 30.9276 33.5177 32.6626 31.7941C34.3925 30.0645 35.7648 28.011 36.7011 25.7509C37.6373 23.4909 38.1192 21.0685 38.1192 18.6222C38.1192 16.1759 37.6373 13.7536 36.7011 11.4935C35.7648 9.2335 34.3925 7.18002 32.6626 5.45037ZM31.3501 30.4629C28.669 33.1556 25.151 34.8551 21.3751 35.2816V22.9816H24.9001C25.3974 22.9816 25.8743 22.7841 26.2259 22.4324C26.5776 22.0808 26.7751 21.6039 26.7751 21.1066C26.7751 20.6093 26.5776 20.1324 26.2259 19.7808C25.8743 19.4292 25.3974 19.2316 24.9001 19.2316H21.3751V14.0941C21.3751 13.5968 21.5726 13.1199 21.9243 12.7683C22.2759 12.4167 22.7528 12.2191 23.2501 12.2191H25.5001C25.9974 12.2191 26.4743 12.0216 26.8259 11.6699C27.1776 11.3183 27.3751 10.8414 27.3751 10.3441C27.3751 9.84684 27.1776 9.36992 26.8259 9.01829C26.4743 8.66666 25.9974 8.46912 25.5001 8.46912H22.3126C21.0694 8.46912 19.8771 8.96298 18.998 9.84206C18.119 10.7211 17.6251 11.9134 17.6251 13.1566V19.2316H14.1188C13.6216 19.2316 13.1447 19.4292 12.793 19.7808C12.4414 20.1324 12.2438 20.6093 12.2438 21.1066C12.2438 21.6039 12.4414 22.0808 12.793 22.4324C13.1447 22.7841 13.6216 22.9816 14.1188 22.9816H17.6251V35.2816C14.143 34.8843 10.8737 33.4032 8.27906 31.0472C5.68438 28.6913 3.89543 25.5798 3.16491 22.1521C2.43439 18.7244 2.79921 15.1538 4.20784 11.9447C5.61648 8.73561 7.99773 6.05014 11.0153 4.26766C14.0328 2.48517 17.534 1.69575 21.0245 2.0109C24.515 2.32606 27.8182 3.72986 30.4677 6.02401C33.1171 8.31817 34.9788 11.3867 35.7899 14.7963C36.6009 18.2058 36.3203 21.784 34.9876 25.0254C34.1372 27.0555 32.902 28.902 31.3501 30.4629Z" fill="#00192F"/>
</svg>
