<svg width="39" height="39" viewBox="0 0 39 39" fill="none" xmlns="http://www.w3.org/2000/svg">
<path d="M27.5245 1.76099H11.0474C5.73073 1.76099 1.42163 6.07084 1.42163 11.3875V27.8631C1.42163 33.1797 5.73149 37.4896 11.0482 37.4896H27.5237C32.8404 37.4896 37.1502 33.1797 37.1502 27.8631V11.3875C37.1502 6.07084 32.8411 1.76099 27.5245 1.76099Z" stroke="#00192F" stroke-width="2" stroke-miterlimit="10"/>
<path d="M19.2859 28.2496C24.049 28.2496 27.9102 24.3884 27.9102 19.6253C27.9102 14.8622 24.049 11.001 19.2859 11.001C14.5229 11.001 10.6616 14.8622 10.6616 19.6253C10.6616 24.3884 14.5229 28.2496 19.2859 28.2496Z" stroke="#00192F" stroke-width="2" stroke-miterlimit="10"/>
<path d="M29.7581 11.0009C30.7786 11.0009 31.6059 10.1736 31.6059 9.15302C31.6059 8.13249 30.7786 7.30518 29.7581 7.30518C28.7375 7.30518 27.9102 8.13249 27.9102 9.15302C27.9102 10.1736 28.7375 11.0009 29.7581 11.0009Z" fill="#00192F"/>
</svg>
