<svg width="24" height="30" viewBox="0 0 24 30" fill="none" xmlns="http://www.w3.org/2000/svg">
<path d="M21.4286 11.7857C21.4286 9.22827 20.4126 6.77557 18.6042 4.96718C16.7959 3.1588 14.3432 2.14286 11.7857 2.14286C9.22827 2.14286 6.77557 3.1588 4.96718 4.96718C3.1588 6.77557 2.14286 9.22827 2.14286 11.7857C2.14286 15.7414 5.30786 20.8971 11.7857 27.0729C18.2636 20.8971 21.4286 15.7414 21.4286 11.7857ZM11.7857 30C3.92786 22.8579 0 16.785 0 11.7857C0 8.65995 1.24171 5.66221 3.45196 3.45196C5.66221 1.24171 8.65995 0 11.7857 0C14.9115 0 17.9092 1.24171 20.1195 3.45196C22.3297 5.66221 23.5714 8.65995 23.5714 11.7857C23.5714 16.785 19.6436 22.8579 11.7857 30Z" fill="#00192F"/>
<path d="M11.7857 14.9992C12.6382 14.9992 13.4558 14.6605 14.0586 14.0577C14.6614 13.4549 15 12.6374 15 11.7849C15 10.9324 14.6614 10.1148 14.0586 9.51203C13.4558 8.90924 12.6382 8.57059 11.7857 8.57059C10.9332 8.57059 10.1157 8.90924 9.51289 9.51203C8.91009 10.1148 8.57145 10.9324 8.57145 11.7849C8.57145 12.6374 8.91009 13.4549 9.51289 14.0577C10.1157 14.6605 10.9332 14.9992 11.7857 14.9992ZM11.7857 17.142C10.3649 17.142 9.00232 16.5776 7.99766 15.573C6.993 14.5683 6.42859 13.2057 6.42859 11.7849C6.42859 10.3641 6.993 9.00146 7.99766 7.99681C9.00232 6.99215 10.3649 6.42773 11.7857 6.42773C13.2065 6.42773 14.5691 6.99215 15.5738 7.99681C16.5785 9.00146 17.1429 10.3641 17.1429 11.7849C17.1429 13.2057 16.5785 14.5683 15.5738 15.573C14.5691 16.5776 13.2065 17.142 11.7857 17.142Z" fill="#00192F"/>
</svg>
