<svg width="34" height="38" viewBox="0 0 34 38" fill="none" xmlns="http://www.w3.org/2000/svg">
<path d="M24.171 11.6793V25.102C24.1704 27.5998 23.3921 30.0354 21.9442 32.0707C20.4963 34.1059 18.4505 35.6399 16.0911 36.4594C13.7316 37.279 11.1755 37.3436 8.77763 36.6441C6.3798 35.9447 4.25924 34.516 2.71041 32.5565C1.16158 30.5969 0.261346 28.2037 0.134705 25.7091C0.00806344 23.2146 0.661302 20.7425 2.00371 18.6361C3.34613 16.5298 5.31109 14.8937 7.62577 13.955C9.94045 13.0163 12.49 12.8217 14.9203 13.3981V19.2501C13.6526 18.6488 12.2239 18.4755 10.8493 18.7562C9.47458 19.037 8.22829 19.7567 7.29794 20.8069C6.36759 21.8572 5.80352 23.1812 5.69063 24.5797C5.57774 25.9782 5.92213 27.3755 6.67198 28.5614C7.42182 29.7473 8.53655 30.6576 9.8484 31.1552C11.1602 31.6528 12.5982 31.7109 13.9459 31.3207C15.2937 30.9305 16.4782 30.1132 17.3212 28.9916C18.1643 27.8701 18.6203 26.5051 18.6206 25.102V0.125244H24.171C24.171 2.57867 25.1456 4.93162 26.8804 6.66645C28.6153 8.40129 30.9682 9.37591 33.4216 9.37591V14.9263C30.058 14.9308 26.7939 13.7851 24.171 11.6793Z" fill="black"/>
</svg>
